# xmcd
#
# Track frame offsets:
#	150
#	13465
#	32065
#	62415
#	80230
#	94898
#	109695
#	123905
#	144793
#	157228
#	174428
#	188665
#
# Disc length: 2761 seconds
#
# Revision: 1
# Processed by: cddbd v1.5.1PL2 Copyright (c) Steve Scherf et al.
# Submitted via: audiograbber 1.83.01
#
DISCID=9d0ac70c
DTITLE=Little Boogie Boy - Boogie Disease
DYEAR=1993
DGENRE=Blues
TTITLE0=Don't Say That No More
TTITLE1=Every Day I Have The Blues
TTITLE2=The Sky Is Crying
TTITLE3=I'm A King Bee
TTITLE4=Poor Boy
TTITLE5=I've Loved You Babe
TTITLE6=Sweet Home Chicago
TTITLE7=As The Years Go Passing By
TTITLE8=Tell Me Babe
TTITLE9=Wonder Where Can She Be
TTITLE10=Wonder Why
TTITLE11=No Good Man
EXTD=
EXTT0=
EXTT1=
EXTT2=
EXTT3=
EXTT4=
EXTT5=
EXTT6=
EXTT7=
EXTT8=
EXTT9=
EXTT10=
EXTT11=
PLAYORDER=
